# Blender 4.1.1
# www.blender.org
mtllib rock.mtl
o Rock2
v -0.982692 -0.420470 0.319312
v -1.175010 0.945598 1.100321
v -0.875565 -0.372919 -0.932295
v -0.925352 0.671981 -0.273806
v -0.058992 -0.667739 0.084781
v 0.250014 0.272988 0.400628
v 0.093721 -0.426983 -1.111634
v 0.032178 0.812836 -0.662800
v -0.464359 -0.348541 -1.098933
v -0.594629 0.891632 -0.607486
v -0.564543 -0.916190 0.735246
v -0.401683 0.537609 0.916790
v -1.189924 -0.482538 -0.483003
v -1.379046 0.743906 0.317474
v 0.187072 -0.678376 -0.541657
v 0.133780 0.636389 -0.370036
v -0.696251 1.120743 0.388268
v -0.882522 -0.374073 -0.485037
v -1.162842 0.069328 0.832600
v -1.308210 0.283782 -0.850604
v 0.149181 0.324605 -1.162006
v 0.367694 -0.325954 0.183972
v -0.560252 -0.172754 0.715014
v -0.754303 0.382656 -1.036627
v 0.119573 0.157920 -0.667378
v -1.133408 0.074928 -0.156695
vn -0.9402 0.2937 -0.1727
vn -0.0254 0.6817 -0.7311
vn 0.9778 0.1591 -0.1366
vn 0.0723 -0.2891 0.9546
vn -0.1539 -0.9511 -0.2677
vn 0.0411 0.9635 0.2646
vn 0.6306 0.7085 0.3168
vn -0.4213 -0.9009 -0.1044
vn 0.4776 -0.2810 0.8325
vn -0.5102 0.7600 -0.4027
vn 0.1818 -0.9833 0.0003
vn 0.3416 0.9391 -0.0384
vn -0.5409 0.7712 -0.3356
vn -0.2310 -0.9314 -0.2812
vn 0.9906 0.1324 -0.0329
vn -0.9684 -0.2190 0.1196
vn -0.9749 -0.1976 0.1030
vn 0.9982 0.0010 -0.0594
vn -0.3336 -0.0762 -0.9396
vn 0.6187 -0.2986 0.7266
vn -0.5027 -0.3818 0.7756
vn 0.9516 -0.2923 -0.0949
vn -0.0947 -0.0070 -0.9955
vn -0.9549 -0.2347 -0.1819
s 1
usemtl Rock
f 26//1 14//1 4//1 20//1
f 24//2 10//2 8//2 21//2
f 25//3 16//3 6//3 22//3
f 23//4 12//4 2//4 19//4
f 18//5 15//5 5//5 11//5
f 17//6 14//6 2//6 12//6
f 16//7 17//7 12//7 6//7
f 13//8 18//8 11//8 1//8
f 22//9 6//9 12//9 23//9
f 20//10 4//10 10//10 24//10
f 3//11 9//11 18//11 13//11
f 8//12 10//12 17//12 16//12
f 10//13 4//13 14//13 17//13
f 9//14 7//14 15//14 18//14
f 21//15 8//15 16//15 25//15
f 19//16 2//16 14//16 26//16
f 1//17 19//17 26//17 13//17
f 7//18 21//18 25//18 15//18
f 3//19 20//19 24//19 9//19
f 5//20 22//20 23//20 11//20
f 11//21 23//21 19//21 1//21
f 15//22 25//22 22//22 5//22
f 9//23 24//23 21//23 7//23
f 13//24 26//24 20//24 3//24
